<mxfile host="app.diagrams.net" modified="2023-11-20T11:14:01.447Z" agent="Mozilla/5.0 (X11; Linux x86_64; rv:109.0) Gecko/20100101 Firefox/119.0" version="22.1.3" etag="b9EFWe0O2gjlrpPkqr08" type="github">
  <diagram name="Page-1" id="5gE_ws3PiUV1aMJQotj4">
    <mxGraphModel>
      <root>
        <mxCell id="0" />
        <mxCell id="1" parent="0" />
      </root>
    </mxGraphModel>
  </diagram>
</mxfile>
